<svg width="2357" height="802" xmlns="http://www.w3.org/2000/svg" xmlns:xlink="http://www.w3.org/1999/xlink" overflow="hidden"><defs><clipPath id="clip0"><rect x="191" y="1277" width="2357" height="802"/></clipPath></defs><g clip-path="url(#clip0)" transform="translate(-191 -1277)"><path d="M420.5 1320.5C420.5 1298.96 436.17 1281.5 455.5 1281.5 474.83 1281.5 490.5 1298.96 490.5 1320.5 490.5 1342.04 474.83 1359.5 455.5 1359.5 436.17 1359.5 420.5 1342.04 420.5 1320.5Z" stroke="#385D8A" stroke-width="9.16667" stroke-linejoin="round" stroke-miterlimit="10" fill="#4F81BD" fill-rule="evenodd"/><path d="M360.5 1463.5C360.5 1441.96 376.17 1424.5 395.5 1424.5 414.83 1424.5 430.5 1441.96 430.5 1463.5 430.5 1485.04 414.83 1502.5 395.5 1502.5 376.17 1502.5 360.5 1485.04 360.5 1463.5Z" stroke="#385D8A" stroke-width="9.16667" stroke-linejoin="round" stroke-miterlimit="10" fill="#4F81BD" fill-rule="evenodd"/><path d="M300.5 1803.5C300.5 1781.96 316.17 1764.5 335.5 1764.5 354.83 1764.5 370.5 1781.96 370.5 1803.5 370.5 1825.04 354.83 1842.5 335.5 1842.5 316.17 1842.5 300.5 1825.04 300.5 1803.5Z" stroke="#385D8A" stroke-width="9.16667" stroke-linejoin="round" stroke-miterlimit="10" fill="#4F81BD" fill-rule="evenodd"/><path d="M195.5 1698.5C195.5 1676.96 211.17 1659.5 230.5 1659.5 249.83 1659.5 265.5 1676.96 265.5 1698.5 265.5 1720.04 249.83 1737.5 230.5 1737.5 211.17 1737.5 195.5 1720.04 195.5 1698.5Z" stroke="#385D8A" stroke-width="9.16667" stroke-linejoin="round" stroke-miterlimit="10" fill="#4F81BD" fill-rule="evenodd"/><path d="M881.5 1407.5C881.5 1385.96 897.17 1368.5 916.5 1368.5 935.83 1368.5 951.5 1385.96 951.5 1407.5 951.5 1429.04 935.83 1446.5 916.5 1446.5 897.17 1446.5 881.5 1429.04 881.5 1407.5Z" stroke="#385D8A" stroke-width="9.16667" stroke-linejoin="round" stroke-miterlimit="10" fill="#4F81BD" fill-rule="evenodd"/><path d="M1014.5 1607.5C1014.5 1585.96 1030.17 1568.5 1049.5 1568.5 1068.83 1568.5 1084.5 1585.96 1084.5 1607.5 1084.5 1629.04 1068.83 1646.5 1049.5 1646.5 1030.17 1646.5 1014.5 1629.04 1014.5 1607.5Z" stroke="#385D8A" stroke-width="9.16667" stroke-linejoin="round" stroke-miterlimit="10" fill="#4F81BD" fill-rule="evenodd"/><path d="M1017.5 1446.5C1017.5 1424.96 1033.17 1407.5 1052.5 1407.5 1071.83 1407.5 1087.5 1424.96 1087.5 1446.5 1087.5 1468.04 1071.83 1485.5 1052.5 1485.5 1033.17 1485.5 1017.5 1468.04 1017.5 1446.5Z" stroke="#385D8A" stroke-width="9.16667" stroke-linejoin="round" stroke-miterlimit="10" fill="#4F81BD" fill-rule="evenodd"/><path d="M569.5 1368.5C569.5 1346.96 585.17 1329.5 604.5 1329.5 623.83 1329.5 639.5 1346.96 639.5 1368.5 639.5 1390.04 623.83 1407.5 604.5 1407.5 585.17 1407.5 569.5 1390.04 569.5 1368.5Z" stroke="#385D8A" stroke-width="9.16667" stroke-linejoin="round" stroke-miterlimit="10" fill="#4F81BD" fill-rule="evenodd"/><path d="M697.5 1997.5C697.5 1975.96 713.17 1958.5 732.5 1958.5 751.83 1958.5 767.5 1975.96 767.5 1997.5 767.5 2019.04 751.83 2036.5 732.5 2036.5 713.17 2036.5 697.5 2019.04 697.5 1997.5Z" stroke="#385D8A" stroke-width="9.16667" stroke-linejoin="round" stroke-miterlimit="10" fill="#4F81BD" fill-rule="evenodd"/><path d="M549.5 1914.5C549.5 1892.96 565.17 1875.5 584.5 1875.5 603.83 1875.5 619.5 1892.96 619.5 1914.5 619.5 1936.04 603.83 1953.5 584.5 1953.5 565.17 1953.5 549.5 1936.04 549.5 1914.5Z" stroke="#385D8A" stroke-width="9.16667" stroke-linejoin="round" stroke-miterlimit="10" fill="#4F81BD" fill-rule="evenodd"/><path d="M861.5 1836.5C861.5 1814.96 877.17 1797.5 896.5 1797.5 915.83 1797.5 931.5 1814.96 931.5 1836.5 931.5 1858.04 915.83 1875.5 896.5 1875.5 877.17 1875.5 861.5 1858.04 861.5 1836.5Z" stroke="#385D8A" stroke-width="9.16667" stroke-linejoin="round" stroke-miterlimit="10" fill="#4F81BD" fill-rule="evenodd"/><path d="M843.5 2035.5C843.5 2013.96 859.17 1996.5 878.5 1996.5 897.83 1996.5 913.5 2013.96 913.5 2035.5 913.5 2057.04 897.83 2074.5 878.5 2074.5 859.17 2074.5 843.5 2057.04 843.5 2035.5Z" stroke="#385D8A" stroke-width="9.16667" stroke-linejoin="round" stroke-miterlimit="10" fill="#4F81BD" fill-rule="evenodd"/><path d="M604.5 1407.5 629.294 1652.71" stroke="#000000" stroke-width="3.4375" stroke-linejoin="round" stroke-miterlimit="10" fill="none" fill-rule="evenodd"/><path d="M455.5 1359.5 604.905 1664.21" stroke="#000000" stroke-width="3.4375" stroke-linejoin="round" stroke-miterlimit="10" fill="none" fill-rule="evenodd"/><path d="M420.5 1490.5 594.699 1691.42" stroke="#000000" stroke-width="3.4375" stroke-linejoin="round" stroke-miterlimit="10" fill="none" fill-rule="evenodd"/><path d="M265.5 1698.5 582.416 1698.5" stroke="#000000" stroke-width="3.4375" stroke-linejoin="round" stroke-miterlimit="10" fill="none" fill-rule="evenodd"/><path d="M0 0 234.573 84.6152" stroke="#000000" stroke-width="3.4375" stroke-linejoin="round" stroke-miterlimit="10" fill="none" fill-rule="evenodd" transform="matrix(1 0 0 -1 370.5 1804.12)"/><path d="M0 0 45.2675 144.885" stroke="#000000" stroke-width="3.4375" stroke-linejoin="round" stroke-miterlimit="10" fill="none" fill-rule="evenodd" transform="matrix(-1 0 0 1 629.767 1730.5)"/><path d="M654.5 1719.5 878.388 1996.78" stroke="#000000" stroke-width="3.4375" stroke-linejoin="round" stroke-miterlimit="10" fill="none" fill-rule="evenodd"/><path d="M654.5 1719.5 707.779 1970.35" stroke="#000000" stroke-width="3.4375" stroke-linejoin="round" stroke-miterlimit="10" fill="none" fill-rule="evenodd"/><path d="M654.5 1719.5 896.84 1804.12" stroke="#000000" stroke-width="3.4375" stroke-linejoin="round" stroke-miterlimit="10" fill="none" fill-rule="evenodd"/><path d="M0 0 237.204 229.059" stroke="#000000" stroke-width="3.4375" stroke-linejoin="round" stroke-miterlimit="10" fill="none" fill-rule="evenodd" transform="matrix(-1 0 0 1 891.704 1435.5)"/><path d="M0 0 363.199 217.642" stroke="#000000" stroke-width="3.4375" stroke-linejoin="round" stroke-miterlimit="10" fill="none" fill-rule="evenodd" transform="matrix(-1 0 0 1 1027.7 1474.5)"/><path d="M0 0 359.509 56.3822" stroke="#000000" stroke-width="3.4375" stroke-linejoin="round" stroke-miterlimit="10" fill="none" fill-rule="evenodd" transform="matrix(-1 0 0 1 1024.01 1635.5)"/><path d="M594.5 1691.5C594.5 1669.96 610.17 1652.5 629.5 1652.5 648.83 1652.5 664.5 1669.96 664.5 1691.5 664.5 1713.04 648.83 1730.5 629.5 1730.5 610.17 1730.5 594.5 1713.04 594.5 1691.5Z" stroke="#385D8A" stroke-width="9.16667" stroke-linejoin="round" stroke-miterlimit="10" fill="none" fill-rule="evenodd"/><path d="M1875.5 1327C1875.5 1305.74 1891.17 1288.5 1910.5 1288.5 1929.83 1288.5 1945.5 1305.74 1945.5 1327 1945.5 1348.26 1929.83 1365.5 1910.5 1365.5 1891.17 1365.5 1875.5 1348.26 1875.5 1327Z" stroke="#385D8A" stroke-width="9.16667" stroke-linejoin="round" stroke-miterlimit="10" fill="#4F81BD" fill-rule="evenodd"/><path d="M1815.5 1469.5C1815.5 1447.96 1831.39 1430.5 1851 1430.5 1870.61 1430.5 1886.5 1447.96 1886.5 1469.5 1886.5 1491.04 1870.61 1508.5 1851 1508.5 1831.39 1508.5 1815.5 1491.04 1815.5 1469.5Z" stroke="#385D8A" stroke-width="9.16667" stroke-linejoin="round" stroke-miterlimit="10" fill="#4F81BD" fill-rule="evenodd"/><path d="M1755.5 1810.5C1755.5 1788.96 1771.17 1771.5 1790.5 1771.5 1809.83 1771.5 1825.5 1788.96 1825.5 1810.5 1825.5 1832.04 1809.83 1849.5 1790.5 1849.5 1771.17 1849.5 1755.5 1832.04 1755.5 1810.5Z" stroke="#385D8A" stroke-width="9.16667" stroke-linejoin="round" stroke-miterlimit="10" fill="#4F81BD" fill-rule="evenodd"/><path d="M1650.5 1704.5C1650.5 1682.96 1666.17 1665.5 1685.5 1665.5 1704.83 1665.5 1720.5 1682.96 1720.5 1704.5 1720.5 1726.04 1704.83 1743.5 1685.5 1743.5 1666.17 1743.5 1650.5 1726.04 1650.5 1704.5Z" stroke="#385D8A" stroke-width="9.16667" stroke-linejoin="round" stroke-miterlimit="10" fill="#4F81BD" fill-rule="evenodd"/><path d="M2336.5 1414.5C2336.5 1392.96 2352.17 1375.5 2371.5 1375.5 2390.83 1375.5 2406.5 1392.96 2406.5 1414.5 2406.5 1436.04 2390.83 1453.5 2371.5 1453.5 2352.17 1453.5 2336.5 1436.04 2336.5 1414.5Z" stroke="#385D8A" stroke-width="9.16667" stroke-linejoin="round" stroke-miterlimit="10" fill="#4F81BD" fill-rule="evenodd"/><path d="M2469.5 1614.5C2469.5 1592.96 2485.17 1575.5 2504.5 1575.5 2523.83 1575.5 2539.5 1592.96 2539.5 1614.5 2539.5 1636.04 2523.83 1653.5 2504.5 1653.5 2485.17 1653.5 2469.5 1636.04 2469.5 1614.5Z" stroke="#385D8A" stroke-width="9.16667" stroke-linejoin="round" stroke-miterlimit="10" fill="#4F81BD" fill-rule="evenodd"/><path d="M2472.5 1453.5C2472.5 1431.96 2488.39 1414.5 2508 1414.5 2527.61 1414.5 2543.5 1431.96 2543.5 1453.5 2543.5 1475.04 2527.61 1492.5 2508 1492.5 2488.39 1492.5 2472.5 1475.04 2472.5 1453.5Z" stroke="#385D8A" stroke-width="9.16667" stroke-linejoin="round" stroke-miterlimit="10" fill="#4F81BD" fill-rule="evenodd"/><path d="M2025.5 1375.5C2025.5 1353.96 2041.17 1336.5 2060.5 1336.5 2079.83 1336.5 2095.5 1353.96 2095.5 1375.5 2095.5 1397.04 2079.83 1414.5 2060.5 1414.5 2041.17 1414.5 2025.5 1397.04 2025.5 1375.5Z" stroke="#385D8A" stroke-width="9.16667" stroke-linejoin="round" stroke-miterlimit="10" fill="#4F81BD" fill-rule="evenodd"/><path d="M2152.5 2004.5C2152.5 1982.96 2168.17 1965.5 2187.5 1965.5 2206.83 1965.5 2222.5 1982.96 2222.5 2004.5 2222.5 2026.04 2206.83 2043.5 2187.5 2043.5 2168.17 2043.5 2152.5 2026.04 2152.5 2004.5Z" stroke="#385D8A" stroke-width="9.16667" stroke-linejoin="round" stroke-miterlimit="10" fill="#4F81BD" fill-rule="evenodd"/><path d="M2004.5 1921.5C2004.5 1899.96 2020.17 1882.5 2039.5 1882.5 2058.83 1882.5 2074.5 1899.96 2074.5 1921.5 2074.5 1943.04 2058.83 1960.5 2039.5 1960.5 2020.17 1960.5 2004.5 1943.04 2004.5 1921.5Z" stroke="#385D8A" stroke-width="9.16667" stroke-linejoin="round" stroke-miterlimit="10" fill="#4F81BD" fill-rule="evenodd"/><path d="M2317.5 1843.5C2317.5 1821.96 2333.17 1804.5 2352.5 1804.5 2371.83 1804.5 2387.5 1821.96 2387.5 1843.5 2387.5 1865.04 2371.83 1882.5 2352.5 1882.5 2333.17 1882.5 2317.5 1865.04 2317.5 1843.5Z" stroke="#385D8A" stroke-width="9.16667" stroke-linejoin="round" stroke-miterlimit="10" fill="#4F81BD" fill-rule="evenodd"/><path d="M2325.5 2031.5C2325.5 2009.96 2341.17 1992.5 2360.5 1992.5 2379.83 1992.5 2395.5 2009.96 2395.5 2031.5 2395.5 2053.04 2379.83 2070.5 2360.5 2070.5 2341.17 2070.5 2325.5 2053.04 2325.5 2031.5Z" stroke="#385D8A" stroke-width="9.16667" stroke-linejoin="round" stroke-miterlimit="10" fill="#4F81BD" fill-rule="evenodd"/><path d="M2075.5 1666.5C2075.5 1644.96 2091.39 1627.5 2111 1627.5 2130.61 1627.5 2146.5 1644.96 2146.5 1666.5 2146.5 1688.04 2130.61 1705.5 2111 1705.5 2091.39 1705.5 2075.5 1688.04 2075.5 1666.5Z" stroke="#385D8A" stroke-width="9.16667" stroke-linejoin="round" stroke-miterlimit="10" fill="none" fill-rule="evenodd"/><path d="M1934.5 1446.5C1934.5 1424.96 1950.17 1407.5 1969.5 1407.5 1988.83 1407.5 2004.5 1424.96 2004.5 1446.5 2004.5 1468.04 1988.83 1485.5 1969.5 1485.5 1950.17 1485.5 1934.5 1468.04 1934.5 1446.5Z" stroke="#385D8A" stroke-width="9.16667" stroke-linejoin="round" stroke-miterlimit="10" fill="none" fill-rule="evenodd"/><path d="M1780.5 1683.5C1780.5 1661.96 1796.17 1644.5 1815.5 1644.5 1834.83 1644.5 1850.5 1661.96 1850.5 1683.5 1850.5 1705.04 1834.83 1722.5 1815.5 1722.5 1796.17 1722.5 1780.5 1705.04 1780.5 1683.5Z" stroke="#385D8A" stroke-width="9.16667" stroke-linejoin="round" stroke-miterlimit="10" fill="none" fill-rule="evenodd"/><path d="M2359.5 1547.5C2359.5 1525.96 2375.17 1508.5 2394.5 1508.5 2413.83 1508.5 2429.5 1525.96 2429.5 1547.5 2429.5 1569.04 2413.83 1586.5 2394.5 1586.5 2375.17 1586.5 2359.5 1569.04 2359.5 1547.5Z" stroke="#385D8A" stroke-width="9.16667" stroke-linejoin="round" stroke-miterlimit="10" fill="none" fill-rule="evenodd"/><path d="M2184.5 1875.5C2184.5 1853.96 2200.17 1836.5 2219.5 1836.5 2238.83 1836.5 2254.5 1853.96 2254.5 1875.5 2254.5 1897.04 2238.83 1914.5 2219.5 1914.5 2200.17 1914.5 2184.5 1897.04 2184.5 1875.5Z" stroke="#385D8A" stroke-width="9.16667" stroke-linejoin="round" stroke-miterlimit="10" fill="none" fill-rule="evenodd"/><path d="M1910.5 1365.5 1944.51 1418.41" stroke="#00B050" stroke-width="9.16667" stroke-linejoin="round" stroke-miterlimit="10" fill="none" fill-rule="evenodd"/><path d="M0 0 48.5328 23.318" stroke="#00B050" stroke-width="9.16667" stroke-linejoin="round" stroke-miterlimit="10" fill="none" fill-rule="evenodd" transform="matrix(1 0 0 -1 1886.5 1469.82)"/><path d="M0 0 41.014 16.2384" stroke="#00B050" stroke-width="9.16667" stroke-linejoin="round" stroke-miterlimit="10" fill="none" fill-rule="evenodd" transform="matrix(-1 0 0 1 2035.51 1402.5)"/><path d="M0 0 64.0977 38.8872" stroke="#00B050" stroke-width="9.16667" stroke-linejoin="round" stroke-miterlimit="10" fill="none" fill-rule="evenodd" transform="matrix(-1 0 0 1 2483.6 1480.5)"/><path d="M2469.64 1614.18 2419.5 1574.5" stroke="#00B050" stroke-width="9.16667" stroke-linejoin="round" stroke-miterlimit="10" fill="none" fill-rule="evenodd"/><path d="M2371.5 1453.5 2394.08 1508.53" stroke="#00B050" stroke-width="9.16667" stroke-linejoin="round" stroke-miterlimit="10" fill="none" fill-rule="evenodd"/><path d="M0 0 72.6094 4.82116" stroke="#00B050" stroke-width="9.16667" stroke-linejoin="round" stroke-miterlimit="10" fill="none" fill-rule="evenodd" transform="matrix(1 0 0 -1 2254.5 1875.32)"/><path d="M2244.5 1903.5 2335.82 2003.9" stroke="#00B050" stroke-width="9.16667" stroke-linejoin="round" stroke-miterlimit="10" fill="none" fill-rule="evenodd"/><path d="M0 0 31.7997 50.7487" stroke="#00B050" stroke-width="9.16667" stroke-linejoin="round" stroke-miterlimit="10" fill="none" fill-rule="evenodd" transform="matrix(-1 0 0 1 2219.3 1914.5)"/><path d="M0 0 120.076 18.0132" stroke="#00B050" stroke-width="9.16667" stroke-linejoin="round" stroke-miterlimit="10" fill="none" fill-rule="evenodd" transform="matrix(-1 0 0 1 2184.58 1875.5)"/><path d="M0 0 25.3097 49.0247" stroke="#00B050" stroke-width="9.16667" stroke-linejoin="round" stroke-miterlimit="10" fill="none" fill-rule="evenodd" transform="matrix(-1 0 0 1 1815.81 1722.5)"/><path d="M0 0 60.1914 21.4034" stroke="#00B050" stroke-width="9.16667" stroke-linejoin="round" stroke-miterlimit="10" fill="none" fill-rule="evenodd" transform="matrix(-1 0 0 1 1780.69 1683.5)"/><path d="M0 0 223.526 92.1719" stroke="#E210C4" stroke-width="9.16667" stroke-linejoin="round" stroke-miterlimit="10" fill="none" fill-rule="evenodd" transform="matrix(-1 0 0 1 2370.03 1574.5)"/><path d="M1994.5 1474.5 2086.29 1639.72" stroke="#E210C4" stroke-width="9.16667" stroke-linejoin="round" stroke-miterlimit="10" fill="none" fill-rule="evenodd"/><path d="M1850.5 1666.5 2085.75 1694.06" stroke="#E210C4" stroke-width="9.16667" stroke-linejoin="round" stroke-miterlimit="10" fill="none" fill-rule="evenodd"/><path d="M2110.5 1705.5 2194.39 1847.68" stroke="#E210C4" stroke-width="9.16667" stroke-linejoin="round" stroke-miterlimit="10" fill="none" fill-rule="evenodd"/><path d="M1907.11 1505.54 1923.48 1505.54 1923.04 1507.52C1921.88 1507.71 1920.95 1508.11 1920.26 1508.72 1919.57 1509.33 1919.23 1510.21 1919.23 1511.37 1919.23 1513.1 1919.67 1515.28 1920.57 1517.9L1923.93 1527.71 1931.43 1518.22C1932.59 1516.76 1933.49 1515.57 1934.14 1514.64 1934.79 1513.7 1935.26 1512.88 1935.54 1512.16 1935.82 1511.45 1935.97 1510.82 1935.97 1510.28 1935.97 1509.55 1935.75 1508.93 1935.32 1508.42 1934.89 1507.9 1934.14 1507.6 1933.09 1507.52L1933.53 1505.54 1948.65 1505.54 1948.21 1507.52C1947.39 1507.77 1946.63 1508.16 1945.92 1508.7 1945.2 1509.24 1944.35 1510.05 1943.36 1511.13 1942.38 1512.21 1940.55 1514.35 1937.87 1517.53L1925.79 1531.96 1931.71 1548.42C1932.6 1550.9 1933.33 1552.8 1933.9 1554.11 1934.47 1555.42 1934.97 1556.39 1935.4 1557.01 1935.75 1557.47 1936.11 1557.83 1936.49 1558.08 1936.87 1558.34 1937.51 1558.6 1938.4 1558.87L1937.99 1560.86 1921.62 1560.86 1922.02 1558.87C1923.27 1558.68 1924.22 1558.26 1924.88 1557.6 1925.54 1556.93 1925.87 1556.08 1925.87 1555.02 1925.87 1553.43 1925.55 1551.66 1924.9 1549.71L1920.69 1537.35 1911.45 1548.9C1910.07 1550.63 1909.07 1552.04 1908.45 1553.14 1907.83 1554.23 1907.52 1555.17 1907.52 1555.95 1907.52 1557.01 1907.77 1557.73 1908.27 1558.12 1908.77 1558.51 1909.47 1558.76 1910.39 1558.87L1909.95 1560.86 1894.87 1560.86 1895.28 1558.87C1896.11 1558.6 1896.88 1558.21 1897.57 1557.7 1898.26 1557.18 1899.15 1556.31 1900.24 1555.08 1901.34 1553.85 1903.25 1551.62 1905.98 1548.38L1918.82 1533.1 1912.82 1516.44C1911.83 1513.66 1911.04 1511.73 1910.47 1510.66 1909.91 1509.6 1909.35 1508.85 1908.79 1508.42 1908.24 1507.98 1907.53 1507.69 1906.66 1507.52Z" fill-rule="evenodd"/><text fill="#000000" fill-opacity="0" font-family="Arial,Arial_MSFontService,sans-serif" font-size="55.3198" x="1894.87" y="1553.94">𝑋</text><path d="M1911.99 1492.4 1947.7 1492.4 1947.7 1496.69 1911.99 1496.69Z" fill-rule="evenodd"/><text fill="#000000" fill-opacity="0" font-family="Arial,Arial_MSFontService,sans-serif" font-size="4.2959" x="1911.99" y="1496.16">ത</text><path d="M1966.38 1550.24C1965.21 1550.24 1964.12 1550.49 1963.12 1551 1962.12 1551.51 1961.2 1552.2 1960.36 1553.08 1959.53 1553.97 1958.79 1554.99 1958.13 1556.15 1957.48 1557.31 1956.92 1558.55 1956.48 1559.88 1956.03 1561.2 1955.69 1562.55 1955.46 1563.93 1955.24 1565.31 1955.12 1566.65 1955.12 1567.96 1955.12 1570.11 1955.43 1571.7 1956.03 1572.74 1956.64 1573.78 1957.61 1574.31 1958.96 1574.31 1959.9 1574.31 1960.92 1573.98 1962.02 1573.34 1963.12 1572.69 1964.19 1571.78 1965.23 1570.61 1966.28 1569.44 1967.22 1568.03 1968.08 1566.37 1968.93 1564.71 1969.58 1562.87 1970.01 1560.84 1970.27 1559.77 1970.49 1558.69 1970.67 1557.61 1970.85 1556.53 1970.94 1555.55 1970.94 1554.68 1970.94 1553.07 1970.58 1551.93 1969.85 1551.25 1969.13 1550.58 1967.97 1550.24 1966.38 1550.24ZM1965.84 1547.29C1967.35 1547.29 1968.71 1547.47 1969.91 1547.84 1971.11 1548.21 1972.22 1548.71 1973.23 1549.35L1976.06 1547.29 1978.47 1547.92C1977.16 1553.81 1975.87 1559.65 1974.59 1565.43 1973.31 1571.21 1972.11 1576.65 1971 1581.75 1970.62 1583.12 1970.43 1584.23 1970.43 1585.09 1970.43 1585.82 1970.71 1586.34 1971.27 1586.65 1971.82 1586.96 1972.78 1587.17 1974.13 1587.29L1973.71 1589.26 1963.49 1589.26C1964.33 1586 1965.11 1582.98 1965.83 1580.19 1966.55 1577.4 1967.34 1574.38 1968.2 1571.12L1967.72 1571C1966.73 1572.29 1965.76 1573.39 1964.82 1574.31 1963.87 1575.22 1962.95 1575.97 1962.05 1576.55 1961.14 1577.14 1960.24 1577.57 1959.34 1577.84 1958.43 1578.1 1957.53 1578.24 1956.61 1578.24 1954.25 1578.24 1952.42 1577.39 1951.13 1575.69 1949.84 1573.99 1949.2 1571.53 1949.2 1568.29 1949.2 1566.36 1949.4 1564.51 1949.81 1562.73 1950.21 1560.96 1950.79 1559.29 1951.53 1557.73 1952.28 1556.17 1953.17 1554.75 1954.2 1553.47 1955.23 1552.19 1956.36 1551.09 1957.59 1550.18 1958.83 1549.27 1960.14 1548.56 1961.53 1548.05 1962.92 1547.54 1964.36 1547.29 1965.84 1547.29Z" fill-rule="evenodd"/><text fill="#000000" fill-opacity="0" font-family="Arial,Arial_MSFontService,sans-serif" font-size="41.9673" x="1949.2" y="1584.01">𝑞</text><path d="M659.133 1545.1 675.506 1545.1 675.06 1547.09C673.898 1547.28 672.973 1547.67 672.284 1548.28 671.595 1548.89 671.251 1549.78 671.251 1550.94 671.251 1552.67 671.696 1554.84 672.588 1557.46L675.952 1567.27 683.449 1557.79C684.611 1556.33 685.516 1555.13 686.165 1554.2 686.813 1553.27 687.279 1552.44 687.563 1551.73 687.847 1551.01 687.988 1550.38 687.988 1549.84 687.988 1549.11 687.772 1548.49 687.34 1547.98 686.908 1547.47 686.165 1547.17 685.111 1547.09L685.557 1545.1 700.673 1545.1 700.228 1547.09C699.417 1547.33 698.654 1547.72 697.938 1548.26 697.222 1548.8 696.371 1549.61 695.385 1550.69 694.398 1551.77 692.568 1553.91 689.893 1557.1L677.816 1571.53 683.733 1587.98C684.625 1590.47 685.354 1592.36 685.922 1593.67 686.489 1594.98 686.989 1595.95 687.421 1596.57 687.772 1597.03 688.137 1597.39 688.515 1597.65 688.893 1597.9 689.528 1598.17 690.42 1598.44L690.015 1600.42 673.642 1600.42 674.047 1598.44C675.29 1598.25 676.242 1597.82 676.904 1597.16 677.566 1596.5 677.897 1595.64 677.897 1594.59 677.897 1592.99 677.573 1591.22 676.924 1589.28L672.71 1576.92 663.469 1588.47C662.091 1590.19 661.092 1591.61 660.47 1592.7 659.849 1593.8 659.538 1594.73 659.538 1595.52 659.538 1596.57 659.788 1597.29 660.288 1597.69 660.788 1598.08 661.497 1598.33 662.416 1598.44L661.97 1600.42 646.894 1600.42 647.299 1598.44C648.137 1598.17 648.9 1597.77 649.589 1597.26 650.278 1596.75 651.169 1595.88 652.264 1594.65 653.358 1593.42 655.269 1591.18 657.998 1587.94L670.845 1572.66 664.847 1556C663.848 1553.22 663.064 1551.3 662.497 1550.23 661.929 1549.16 661.369 1548.41 660.815 1547.98 660.261 1547.55 659.552 1547.25 658.687 1547.09Z" fill-rule="evenodd"/><text fill="#000000" fill-opacity="0" font-family="Arial,Arial_MSFontService,sans-serif" font-size="55.3198" x="646.894" y="1593.51">𝑋</text><path d="M664.016 1531.96 699.72 1531.96 699.72 1536.26 664.016 1536.26Z" fill-rule="evenodd"/><text fill="#000000" fill-opacity="0" font-family="Arial,Arial_MSFontService,sans-serif" font-size="4.2959" x="664.016" y="1535.72">ത</text></g></svg>